<?xml version="1.0" standalone="no"?>
<!DOCTYPE svg PUBLIC "-//W3C//DTD SVG 20010904//EN"
 "http://www.w3.org/TR/2001/REC-SVG-20010904/DTD/svg10.dtd">
<svg version="1.0" xmlns="http://www.w3.org/2000/svg"
 width="700.000000pt" height="700.000000pt" viewBox="0 0 700.000000 700.000000"
 preserveAspectRatio="xMidYMid meet">
<metadata>
Created by potrace 1.14, written by Peter Selinger 2001-2017
</metadata>
<g transform="translate(0.000000,700.000000) scale(0.100000,-0.100000)"
fill="#000000" stroke="none">
<path d="M300 3350 l0 -1540 398 0 397 0 0 646 c0 419 4 648 10 653 6 4 269 7
585 7 l575 -1 3 -653 2 -652 397 2 397 3 0 1535 0 1535 -397 3 -397 2 -2 -587
-3 -587 -578 -1 c-375 0 -581 4 -586 10 -4 6 -7 270 -6 588 l0 577 -397 0
-398 0 0 -1540z"/>
<path d="M3275 3353 l0 -1538 378 -3 377 -2 2 1120 3 1121 84 -198 c46 -109
92 -216 101 -238 10 -22 84 -195 165 -385 81 -190 194 -453 251 -585 l103
-240 253 -3 253 -2 19 47 c10 27 28 68 39 93 10 24 44 103 74 175 30 71 63
148 73 170 10 22 124 290 255 595 130 305 240 558 243 562 4 4 7 -497 7 -1113
l-1 -1119 376 2 375 3 0 1538 1 1537 -506 0 -505 0 -129 -302 c-71 -167 -140
-328 -154 -358 -13 -30 -40 -93 -59 -140 -34 -81 -47 -113 -94 -216 -11 -26
-29 -67 -39 -93 -10 -25 -29 -71 -42 -101 -14 -30 -42 -95 -63 -145 -21 -49
-48 -112 -60 -140 -12 -27 -31 -71 -41 -97 -10 -27 -21 -48 -24 -48 -3 0 -42
87 -86 193 -254 600 -596 1405 -606 1425 l-11 22 -506 0 -506 0 0 -1537z"/>
</g>
</svg>
