<svg viewBox="0 0 64 32" width="640" height="320" xmlns="http://www.w3.org/2000/svg">
    <style>
        @import url('https://fonts.googleapis.com/css2?family=Roboto:ital,wght@0,100;0,300;0,400;0,500;0,700;0,900;1,100;1,300;1,400;1,500;1,700;1,900');

        * {
            font: bold 10px 'Roboto';
        }
    </style>
    <rect width="64" height="32" fill="#eee" />

    <text x="3.5" y="9" fill="rgb(194, 24, 91)">Habit</text>
    <text x="27.5" y="9" fill="rgb(236, 64, 122)">Mosaic</text>

    <rect fill="rgb(181, 217, 200)" x="2.5" y="10" width="2.5" height="2.5" />
    <rect fill="rgb(227, 93, 106)" x="2.5" y="13" width="2.5" height="2.5" />
    <rect fill="rgb(165, 208, 188)" x="2.5" y="16" width="2.5" height="2.5" />
    <rect fill="rgb(119, 184, 154)" x="2.5" y="19" width="2.5" height="2.5" />
    <rect fill="rgb(94, 171, 135)" x="2.5" y="22" width="2.5" height="2.5" />
    <rect fill="rgb(147, 199, 175)" x="2.5" y="25" width="2.5" height="2.5" />
    <rect fill="rgb(103, 176, 142)" x="2.5" y="28" width="2.5" height="2.5" />
    <rect fill="rgb(224, 73, 88)" x="5.5" y="10" width="2.5" height="2.5" />
    <rect fill="rgb(168, 209, 190)" x="5.5" y="13" width="2.5" height="2.5" />
    <rect fill="rgb(253, 245, 246)" x="5.5" y="16" width="2.5" height="2.5" />
    <rect fill="rgb(138, 194, 168)" x="5.5" y="19" width="2.5" height="2.5" />
    <rect fill="rgb(237, 245, 241)" x="5.5" y="22" width="2.5" height="2.5" />
    <rect fill="rgb(103, 176, 142)" x="5.5" y="25" width="2.5" height="2.5" />
    <rect fill="rgb(248, 215, 218)" x="5.5" y="28" width="2.5" height="2.5" />
    <rect fill="rgb(254, 249, 249)" x="8.5" y="10" width="2.5" height="2.5" />
    <rect fill="rgb(142, 196, 171)" x="8.5" y="13" width="2.5" height="2.5" />
    <rect fill="rgb(62, 154, 111)" x="8.5" y="16" width="2.5" height="2.5" />
    <rect fill="rgb(140, 195, 170)" x="8.5" y="19" width="2.5" height="2.5" />
    <rect fill="rgb(224, 73, 88)" x="8.5" y="22" width="2.5" height="2.5" />
    <rect fill="rgb(101, 175, 140)" x="8.5" y="25" width="2.5" height="2.5" />
    <rect fill="rgb(168, 209, 190)" x="8.5" y="28" width="2.5" height="2.5" />
    <rect fill="rgb(119, 184, 154)" x="11.5" y="10" width="2.5" height="2.5" />
    <rect fill="rgb(53, 149, 105)" x="11.5" y="13" width="2.5" height="2.5" />
    <rect fill="rgb(238, 156, 164)" x="11.5" y="16" width="2.5" height="2.5" />
    <rect fill="rgb(53, 149, 105)" x="11.5" y="19" width="2.5" height="2.5" />
    <rect fill="rgb(244, 194, 199)" x="11.5" y="22" width="2.5" height="2.5" />
    <rect fill="rgb(163, 207, 187)" x="11.5" y="25" width="2.5" height="2.5" />
    <rect fill="rgb(152, 201, 178)" x="11.5" y="28" width="2.5" height="2.5" />
    <rect fill="rgb(236, 148, 156)" x="14.5" y="10" width="2.5" height="2.5" />
    <rect fill="rgb(27, 136, 86)" x="14.5" y="13" width="2.5" height="2.5" />
    <rect fill="rgb(186, 219, 204)" x="14.5" y="16" width="2.5" height="2.5" />
    <rect fill="rgb(236, 144, 153)" x="14.5" y="19" width="2.5" height="2.5" />
    <rect fill="rgb(253, 245, 246)" x="14.5" y="22" width="2.5" height="2.5" />
    <rect fill="rgb(158, 205, 183)" x="14.5" y="25" width="2.5" height="2.5" />
    <rect fill="rgb(246, 250, 248)" x="14.5" y="28" width="2.5" height="2.5" />
    <rect fill="rgb(110, 179, 147)" x="17.5" y="10" width="2.5" height="2.5" />
    <rect fill="rgb(224, 73, 88)" x="17.5" y="13" width="2.5" height="2.5" />
    <rect fill="rgb(41, 143, 96)" x="17.5" y="16" width="2.5" height="2.5" />
    <rect fill="rgb(245, 198, 203)" x="17.5" y="19" width="2.5" height="2.5" />
    <rect fill="rgb(225, 239, 233)" x="17.5" y="22" width="2.5" height="2.5" />
    <rect fill="rgb(41, 143, 96)" x="17.5" y="25" width="2.5" height="2.5" />
    <rect fill="rgb(234, 132, 142)" x="17.5" y="28" width="2.5" height="2.5" />
    <rect fill="rgb(92, 170, 134)" x="20.5" y="10" width="2.5" height="2.5" />
    <rect fill="rgb(235, 142, 151)" x="20.5" y="13" width="2.5" height="2.5" />
    <rect fill="rgb(231, 116, 127)" x="20.5" y="16" width="2.5" height="2.5" />
    <rect fill="rgb(246, 202, 207)" x="20.5" y="19" width="2.5" height="2.5" />
    <rect fill="rgb(154, 202, 180)" x="20.5" y="22" width="2.5" height="2.5" />
    <rect fill="rgb(156, 203, 181)" x="20.5" y="25" width="2.5" height="2.5" />
    <rect fill="rgb(133, 191, 164)" x="20.5" y="28" width="2.5" height="2.5" />
    <rect fill="rgb(184, 218, 202)" x="23.5" y="10" width="2.5" height="2.5" />
    <rect fill="rgb(188, 220, 205)" x="23.5" y="13" width="2.5" height="2.5" />
    <rect fill="rgb(225, 81, 95)" x="23.5" y="16" width="2.5" height="2.5" />
    <rect fill="rgb(41, 143, 96)" x="23.5" y="19" width="2.5" height="2.5" />
    <rect fill="rgb(233, 130, 140)" x="23.5" y="22" width="2.5" height="2.5" />
    <rect fill="rgb(177, 214, 197)" x="23.5" y="25" width="2.5" height="2.5" />
    <rect fill="rgb(237, 245, 241)" x="23.5" y="28" width="2.5" height="2.5" />
    <rect fill="rgb(112, 181, 149)" x="26.5" y="10" width="2.5" height="2.5" />
    <rect fill="rgb(165, 208, 188)" x="26.5" y="13" width="2.5" height="2.5" />
    <rect fill="rgb(253, 243, 244)" x="26.5" y="16" width="2.5" height="2.5" />
    <rect fill="rgb(250, 227, 229)" x="26.5" y="19" width="2.5" height="2.5" />
    <rect fill="rgb(248, 251, 250)" x="26.5" y="22" width="2.5" height="2.5" />
    <rect fill="rgb(25, 135, 84)" x="26.5" y="25" width="2.5" height="2.5" />
    <rect fill="rgb(236, 146, 155)" x="26.5" y="28" width="2.5" height="2.5" />
    <rect fill="rgb(226, 89, 102)" x="29.5" y="10" width="2.5" height="2.5" />
    <rect fill="rgb(222, 63, 78)" x="29.5" y="13" width="2.5" height="2.5" />
    <rect fill="rgb(170, 211, 192)" x="29.5" y="16" width="2.5" height="2.5" />
    <rect fill="rgb(248, 215, 218)" x="29.5" y="19" width="2.5" height="2.5" />
    <rect fill="rgb(227, 93, 106)" x="29.5" y="22" width="2.5" height="2.5" />
    <rect fill="rgb(55, 151, 106)" x="29.5" y="25" width="2.5" height="2.5" />
    <rect fill="rgb(240, 170, 177)" x="29.5" y="28" width="2.5" height="2.5" />
    <rect fill="rgb(252, 235, 236)" x="32.5" y="10" width="2.5" height="2.5" />
    <rect fill="rgb(254, 251, 251)" x="32.5" y="13" width="2.5" height="2.5" />
    <rect fill="rgb(142, 196, 171)" x="32.5" y="16" width="2.5" height="2.5" />
    <rect fill="rgb(110, 179, 147)" x="32.5" y="19" width="2.5" height="2.5" />
    <rect fill="rgb(250, 229, 231)" x="32.5" y="22" width="2.5" height="2.5" />
    <rect fill="rgb(142, 196, 171)" x="32.5" y="25" width="2.5" height="2.5" />
    <rect fill="rgb(158, 205, 183)" x="32.5" y="28" width="2.5" height="2.5" />
    <rect fill="rgb(253, 241, 242)" x="35.5" y="10" width="2.5" height="2.5" />
    <rect fill="rgb(236, 148, 156)" x="35.5" y="13" width="2.5" height="2.5" />
    <rect fill="rgb(226, 85, 99)" x="35.5" y="16" width="2.5" height="2.5" />
    <rect fill="rgb(41, 143, 96)" x="35.5" y="19" width="2.5" height="2.5" />
    <rect fill="rgb(252, 239, 240)" x="35.5" y="22" width="2.5" height="2.5" />
    <rect fill="rgb(112, 181, 149)" x="35.5" y="25" width="2.5" height="2.5" />
    <rect fill="rgb(233, 126, 136)" x="35.5" y="28" width="2.5" height="2.5" />
    <rect fill="rgb(69, 158, 116)" x="38.5" y="10" width="2.5" height="2.5" />
    <rect fill="rgb(198, 225, 212)" x="38.5" y="13" width="2.5" height="2.5" />
    <rect fill="rgb(229, 104, 116)" x="38.5" y="16" width="2.5" height="2.5" />
    <rect fill="rgb(246, 250, 248)" x="38.5" y="19" width="2.5" height="2.5" />
    <rect fill="rgb(253, 245, 246)" x="38.5" y="22" width="2.5" height="2.5" />
    <rect fill="rgb(92, 170, 134)" x="38.5" y="25" width="2.5" height="2.5" />
    <rect fill="rgb(237, 152, 160)" x="38.5" y="28" width="2.5" height="2.5" />
    <rect fill="rgb(226, 87, 101)" x="41.5" y="10" width="2.5" height="2.5" />
    <rect fill="rgb(108, 178, 146)" x="41.5" y="13" width="2.5" height="2.5" />
    <rect fill="rgb(78, 163, 123)" x="41.5" y="16" width="2.5" height="2.5" />
    <rect fill="rgb(193, 223, 209)" x="41.5" y="19" width="2.5" height="2.5" />
    <rect fill="rgb(242, 182, 188)" x="41.5" y="22" width="2.5" height="2.5" />
    <rect fill="rgb(71, 159, 118)" x="41.5" y="25" width="2.5" height="2.5" />
    <rect fill="rgb(165, 208, 188)" x="41.5" y="28" width="2.5" height="2.5" />
    <rect fill="rgb(207, 230, 219)" x="44.5" y="10" width="2.5" height="2.5" />
    <rect fill="rgb(230, 110, 121)" x="44.5" y="13" width="2.5" height="2.5" />
    <rect fill="rgb(232, 120, 130)" x="44.5" y="16" width="2.5" height="2.5" />
    <rect fill="rgb(110, 179, 147)" x="44.5" y="19" width="2.5" height="2.5" />
    <rect fill="rgb(252, 235, 236)" x="44.5" y="22" width="2.5" height="2.5" />
    <rect fill="rgb(248, 251, 250)" x="44.5" y="25" width="2.5" height="2.5" />
    <rect fill="rgb(246, 250, 248)" x="44.5" y="28" width="2.5" height="2.5" />
    <rect fill="rgb(188, 220, 205)" x="47.5" y="10" width="2.5" height="2.5" />
    <rect fill="rgb(172, 212, 193)" x="47.5" y="13" width="2.5" height="2.5" />
    <rect fill="rgb(225, 81, 95)" x="47.5" y="16" width="2.5" height="2.5" />
    <rect fill="rgb(25, 135, 84)" x="47.5" y="19" width="2.5" height="2.5" />
    <rect fill="rgb(122, 185, 156)" x="47.5" y="22" width="2.5" height="2.5" />
    <rect fill="rgb(198, 225, 212)" x="47.5" y="25" width="2.5" height="2.5" />
    <rect fill="rgb(101, 175, 140)" x="47.5" y="28" width="2.5" height="2.5" />
    <rect fill="rgb(243, 188, 194)" x="50.5" y="10" width="2.5" height="2.5" />
    <rect fill="rgb(244, 190, 195)" x="50.5" y="13" width="2.5" height="2.5" />
    <rect fill="rgb(244, 192, 197)" x="50.5" y="16" width="2.5" height="2.5" />
    <rect fill="rgb(230, 114, 125)" x="50.5" y="19" width="2.5" height="2.5" />
    <rect fill="rgb(96, 172, 137)" x="50.5" y="22" width="2.5" height="2.5" />
    <rect fill="rgb(230, 114, 125)" x="50.5" y="25" width="2.5" height="2.5" />
    <rect fill="rgb(73, 160, 120)" x="50.5" y="28" width="2.5" height="2.5" />
    <rect fill="rgb(106, 177, 144)" x="53.5" y="10" width="2.5" height="2.5" />
    <rect fill="rgb(254, 249, 249)" x="53.5" y="13" width="2.5" height="2.5" />
    <rect fill="rgb(200, 226, 214)" x="53.5" y="16" width="2.5" height="2.5" />
    <rect fill="rgb(117, 183, 152)" x="53.5" y="19" width="2.5" height="2.5" />
    <rect fill="rgb(239, 160, 168)" x="53.5" y="22" width="2.5" height="2.5" />
    <rect fill="rgb(163, 207, 187)" x="53.5" y="25" width="2.5" height="2.5" />
    <rect fill="rgb(228, 101, 114)" x="53.5" y="28" width="2.5" height="2.5" />
    <rect fill="rgb(138, 194, 168)" x="56.5" y="10" width="2.5" height="2.5" />
    <rect fill="rgb(145, 197, 173)" x="56.5" y="13" width="2.5" height="2.5" />
    <rect fill="rgb(242, 182, 188)" x="56.5" y="16" width="2.5" height="2.5" />
    <rect fill="rgb(27, 136, 86)" x="56.5" y="19" width="2.5" height="2.5" />
    <rect fill="rgb(236, 148, 156)" x="56.5" y="22" width="2.5" height="2.5" />
    <rect fill="rgb(71, 159, 118)" x="56.5" y="25" width="2.5" height="2.5" />
    <rect fill="rgb(243, 188, 194)" x="56.5" y="28" width="2.5" height="2.5" />
    <rect fill="rgb(149, 200, 176)" x="59.5" y="10" width="2.5" height="2.5" />
    <rect fill="rgb(224, 75, 89)" x="59.5" y="13" width="2.5" height="2.5" />
    <rect fill="rgb(181, 217, 200)" x="59.5" y="16" width="2.5" height="2.5" />
    <rect fill="rgb(253, 254, 253)" x="59.5" y="19" width="2.5" height="2.5" />
    <rect fill="rgb(241, 176, 182)" x="59.5" y="22" width="2.5" height="2.5" />
    <rect fill="rgb(244, 192, 197)" x="59.5" y="25" width="2.5" height="2.5" />
    <rect fill="rgb(224, 73, 88)" x="59.5" y="28" width="2.5" height="2.5" />

</svg>
